<svg xmlns="http://www.w3.org/2000/svg" viewBox="0 0 400 400">
  <defs>
    <linearGradient id="fondo" x1="0" y1="0" x2="0" y2="1">
      <stop offset="0" stop-color="#2a3550"/>
      <stop offset="0.6" stop-color="#3d4c72"/>
      <stop offset="0.6" stop-color="#2e7d4f"/>
      <stop offset="1" stop-color="#21613b"/>
    </linearGradient>
    <pattern id="red" width="12" height="12" patternUnits="userSpaceOnUse">
      <path d="M0 0 H12 M0 0 V12" stroke="#111" stroke-width="1.5" opacity="0.7"/>
    </pattern>
  </defs>
  <rect width="400" height="400" fill="url(#fondo)"/>
  <!-- Red -->
  <rect x="30" y="196" width="340" height="56" fill="url(#red)"/>
  <rect x="30" y="192" width="340" height="8" fill="#f5f5f5"/>
  <rect x="26" y="192" width="6" height="140" fill="#37474f"/>
  <rect x="368" y="192" width="6" height="140" fill="#37474f"/>
  <!-- Volante -->
  <g transform="translate(150 120) rotate(-30)">
    <path d="M-20 0 L20 0 L10 -46 L-10 -46 Z" fill="#fff" stroke="#ccc" stroke-width="2"/>
    <path d="M-12 -2 L-6 -44 M0 -2 L0 -46 M12 -2 L6 -44" stroke="#ccc" stroke-width="1.5"/>
    <ellipse cx="0" cy="8" rx="16" ry="12" fill="#fafafa" stroke="#bbb" stroke-width="2"/>
  </g>
  <path d="M130 150 Q90 230 60 260" fill="none" stroke="#fff" stroke-width="3" stroke-dasharray="8 10" opacity="0.6"/>
  <!-- Raqueta -->
  <g transform="translate(275 165) rotate(28)">
    <ellipse cx="0" cy="0" rx="50" ry="62" fill="none" stroke="#e53935" stroke-width="9"/>
    <g stroke="#fff" stroke-width="1.5" opacity="0.6">
      <path d="M-40 -30 H40 M-46 -10 H46 M-46 10 H46 M-40 30 H40 M-30 -50 V50 M-10 -60 V60 M10 -60 V60 M30 -50 V50"/>
    </g>
    <rect x="-4" y="62" width="8" height="70" fill="#e53935"/>
    <rect x="-8" y="132" width="16" height="44" rx="5" fill="#212121"/>
  </g>
</svg>
